<?xml version="1.0" standalone="no"?>
<!DOCTYPE svg PUBLIC "-//W3C//DTD SVG 20010904//EN"
 "http://www.w3.org/TR/2001/REC-SVG-20010904/DTD/svg10.dtd">
<svg version="1.0" xmlns="http://www.w3.org/2000/svg"
 width="398.000000pt" height="398.000000pt" viewBox="0 0 398.000000 398.000000"
 preserveAspectRatio="xMidYMid meet">
<metadata>
Created by potrace 1.14, written by Peter Selinger 2001-2017
</metadata>
<g transform="translate(0.000000,398.000000) scale(0.100000,-0.100000)"
fill="#000000" stroke="none">
<path d="M1990 3236 c0 -4 6 -19 14 -34 l14 -27 -98 19 c-54 10 -106 16 -116
12 -15 -6 -12 -12 21 -46 l39 -40 -60 0 c-45 0 -74 7 -109 25 -27 13 -51 22
-53 20 -2 -2 -5 -21 -5 -42 -1 -38 -1 -38 -38 -35 -34 4 -37 2 -32 -17 4 -16
-1 -21 -23 -26 -59 -14 -70 -18 -103 -43 -28 -21 -31 -26 -18 -34 13 -7 9 -15
-27 -48 -24 -22 -48 -40 -53 -40 -14 0 -73 -60 -73 -75 0 -7 -13 -37 -30 -68
-16 -31 -34 -73 -39 -94 -6 -21 -19 -63 -30 -93 -23 -65 -32 -137 -35 -269 -2
-106 8 -313 19 -405 l8 -58 -32 7 c-110 24 -171 -87 -145 -264 13 -91 24 -133
44 -172 27 -51 85 -119 129 -150 58 -41 58 -41 66 -105 3 -30 10 -56 15 -59 4
-3 11 -17 15 -32 13 -54 110 -176 241 -302 143 -139 141 -135 61 -148 -34 -6
-60 -7 -92 -3 -11 2 -94 -20 -185 -47 -91 -28 -191 -56 -222 -62 -32 -7 -58
-16 -58 -21 0 -11 124 -84 207 -121 453 -206 957 -220 1412 -40 111 44 281
132 300 155 13 15 -2 21 -79 31 -19 2 -102 27 -185 53 -99 33 -155 47 -166 41
-9 -5 -31 -4 -50 2 -19 5 -54 12 -77 14 -24 3 -48 7 -53 10 -4 3 52 64 125
136 183 178 247 273 276 412 9 46 17 60 38 71 84 44 167 168 190 286 14 74 8
213 -11 252 -25 50 -77 75 -129 61 -21 -6 -38 -7 -38 -4 1 3 7 53 14 111 16
120 18 302 4 405 -16 122 -68 284 -98 305 -4 3 -17 24 -28 46 -12 23 -36 54
-53 70 -47 42 -69 65 -114 115 -49 54 -103 97 -172 134 -29 15 -59 38 -67 50
-26 39 -116 123 -159 149 -45 26 -97 43 -97 32z"/>
</g>
</svg>
